<svg xmlns="http://www.w3.org/2000/svg" xmlns:xlink="http://www.w3.org/1999/xlink" width="500" zoomAndPan="magnify" viewBox="0 0 375 374.999991" height="500" preserveAspectRatio="xMidYMid meet" version="1.0"><rect x="-37.5" width="450" fill="#ffffff" y="-37.499999" height="449.999989" fill-opacity="1"/><rect x="-37.5" width="450" fill="#ffffff" y="-37.499999" height="449.999989" fill-opacity="1"/><path fill="#ffffff" d="M 0.796875 0.796875 L 374.996094 1.589844 L 376.589844 377.390625 L 1.59375 375 Z M 0.796875 0.796875 " fill-opacity="1" fill-rule="nonzero"/><path fill="#142433" d="M 77.410156 334.695312 L 74.3125 49.261719 L 126.105469 49.261719 L 230.257812 192.824219 L 230.257812 38.84375 L 298.941406 38.5625 C 298.941406 38.5625 300.265625 229.277344 299.222656 279.519531 C 293.179688 337.417969 226.746094 348.640625 193.382812 338.914062 C 223.832031 325.914062 229.769531 317.453125 229.976562 284.304688 C 207.949219 256.789062 133.425781 158.480469 133.425781 158.480469 L 132.300781 262.070312 Z M 77.410156 334.695312 " fill-opacity="1" fill-rule="nonzero"/><path fill="#142433" d="M 208.199219 291.601562 C 208.199219 292.722656 208.144531 293.839844 208.035156 294.957031 C 207.925781 296.070312 207.761719 297.179688 207.542969 298.277344 C 207.324219 299.378906 207.050781 300.464844 206.726562 301.539062 C 206.398438 302.609375 206.023438 303.664062 205.59375 304.703125 C 205.164062 305.738281 204.6875 306.75 204.15625 307.738281 C 203.628906 308.726562 203.054688 309.6875 202.429688 310.621094 C 201.808594 311.550781 201.140625 312.453125 200.429688 313.320312 C 199.71875 314.183594 198.964844 315.015625 198.171875 315.808594 C 197.378906 316.601562 196.550781 317.351562 195.683594 318.0625 C 194.816406 318.777344 193.917969 319.441406 192.984375 320.066406 C 192.050781 320.6875 191.09375 321.265625 190.101562 321.792969 C 189.113281 322.320312 188.101562 322.800781 187.066406 323.230469 C 186.03125 323.660156 184.976562 324.035156 183.902344 324.359375 C 182.828125 324.6875 181.742188 324.957031 180.644531 325.175781 C 179.542969 325.394531 178.4375 325.5625 177.320312 325.671875 C 176.203125 325.78125 175.085938 325.835938 173.964844 325.835938 C 172.84375 325.835938 171.726562 325.78125 170.609375 325.671875 C 169.492188 325.5625 168.386719 325.394531 167.285156 325.175781 C 166.1875 324.957031 165.097656 324.6875 164.027344 324.359375 C 162.953125 324.035156 161.898438 323.660156 160.863281 323.230469 C 159.828125 322.800781 158.816406 322.320312 157.824219 321.792969 C 156.835938 321.265625 155.875 320.6875 154.945312 320.066406 C 154.011719 319.441406 153.113281 318.777344 152.246094 318.0625 C 151.378906 317.351562 150.550781 316.601562 149.757812 315.808594 C 148.964844 315.015625 148.210938 314.183594 147.5 313.320312 C 146.789062 312.453125 146.121094 311.550781 145.5 310.621094 C 144.875 309.6875 144.300781 308.726562 143.773438 307.738281 C 143.242188 306.75 142.765625 305.738281 142.335938 304.703125 C 141.90625 303.664062 141.527344 302.609375 141.203125 301.539062 C 140.878906 300.464844 140.605469 299.378906 140.386719 298.277344 C 140.167969 297.179688 140.003906 296.070312 139.894531 294.957031 C 139.785156 293.839844 139.730469 292.722656 139.730469 291.601562 C 139.730469 290.480469 139.785156 289.359375 139.894531 288.246094 C 140.003906 287.128906 140.167969 286.019531 140.386719 284.921875 C 140.605469 283.820312 140.878906 282.734375 141.203125 281.660156 C 141.527344 280.589844 141.90625 279.535156 142.335938 278.5 C 142.765625 277.460938 143.242188 276.449219 143.773438 275.460938 C 144.300781 274.472656 144.875 273.511719 145.5 272.578125 C 146.121094 271.648438 146.789062 270.746094 147.5 269.882812 C 148.210938 269.015625 148.964844 268.183594 149.757812 267.390625 C 150.550781 266.597656 151.378906 265.847656 152.246094 265.136719 C 153.113281 264.425781 154.011719 263.757812 154.945312 263.132812 C 155.875 262.511719 156.835938 261.9375 157.824219 261.40625 C 158.816406 260.878906 159.828125 260.398438 160.863281 259.96875 C 161.898438 259.542969 162.953125 259.164062 164.027344 258.839844 C 165.097656 258.511719 166.1875 258.242188 167.285156 258.023438 C 168.386719 257.804688 169.492188 257.640625 170.609375 257.53125 C 171.726562 257.417969 172.84375 257.363281 173.964844 257.363281 C 175.085938 257.363281 176.203125 257.417969 177.320312 257.53125 C 178.4375 257.640625 179.542969 257.804688 180.644531 258.023438 C 181.742188 258.242188 182.828125 258.511719 183.902344 258.839844 C 184.976562 259.164062 186.03125 259.542969 187.066406 259.96875 C 188.101562 260.398438 189.113281 260.878906 190.101562 261.40625 C 191.09375 261.9375 192.050781 262.511719 192.984375 263.132812 C 193.917969 263.757812 194.816406 264.425781 195.683594 265.136719 C 196.550781 265.847656 197.378906 266.597656 198.171875 267.390625 C 198.964844 268.183594 199.71875 269.015625 200.429688 269.882812 C 201.140625 270.746094 201.808594 271.648438 202.429688 272.578125 C 203.054688 273.511719 203.628906 274.472656 204.15625 275.460938 C 204.6875 276.449219 205.164062 277.460938 205.59375 278.5 C 206.023438 279.535156 206.398438 280.589844 206.726562 281.660156 C 207.050781 282.734375 207.324219 283.820312 207.542969 284.921875 C 207.761719 286.019531 207.925781 287.128906 208.035156 288.246094 C 208.144531 289.359375 208.199219 290.480469 208.199219 291.601562 Z M 208.199219 291.601562 " fill-opacity="1" fill-rule="nonzero"/></svg>